<svg xmlns="http://www.w3.org/2000/svg" xmlns:xlink="http://www.w3.org/1999/xlink" width="397" zoomAndPan="magnify" viewBox="0 0 297.75 419.249996" height="559" preserveAspectRatio="xMidYMid meet" version="1.0"><defs><g/><clipPath id="b1c656b110"><path d="M 0.171875 0.144531 L 289.8125 0.144531 L 289.8125 388.492188 L 0.171875 388.492188 Z M 0.171875 0.144531 " clip-rule="nonzero"/></clipPath><clipPath id="c0c6d1841a"><path d="M 6.886719 5 L 280.449219 5 L 280.449219 381.710938 L 6.886719 381.710938 Z M 6.886719 5 " clip-rule="nonzero"/></clipPath><clipPath id="9f58ad7f85"><path d="M 6.886719 110.410156 C 6.886719 52.292969 68.089844 5.179688 143.585938 5.179688 C 219.082031 5.179688 280.28125 52.292969 280.28125 110.410156 L 280.28125 276.480469 C 280.28125 334.597656 219.082031 381.710938 143.585938 381.710938 C 68.089844 381.710938 6.886719 334.597656 6.886719 276.480469 Z M 6.886719 110.410156 " clip-rule="nonzero"/></clipPath><clipPath id="f47245eef0"><path d="M 0.398438 282 L 1 282 L 1 283 L 0.398438 283 Z M 0.398438 282 " clip-rule="nonzero"/></clipPath><clipPath id="bf7deb1146"><rect x="0" width="108" y="0" height="351"/></clipPath><clipPath id="ab116b78de"><rect x="0" width="188" y="0" height="224"/></clipPath><clipPath id="00680e3eab"><rect x="0" width="176" y="0" height="46"/></clipPath><clipPath id="b462cfd6d7"><rect x="0" width="161" y="0" height="40"/></clipPath><clipPath id="07b9e0783d"><rect x="0" width="290" y="0" height="389"/></clipPath><clipPath id="5cec152475"><rect x="0" width="290" y="0" height="389"/></clipPath></defs><g transform="matrix(1, 0, 0, 1, 5, 8)"><g clip-path="url(#5cec152475)"><g clip-path="url(#b1c656b110)"><g><g clip-path="url(#07b9e0783d)"><g clip-path="url(#c0c6d1841a)"><g clip-path="url(#9f58ad7f85)"><path stroke-linecap="butt" transform="matrix(0, -1.519804, 1.519804, 0, 6.886217, 381.711202)" fill="none" stroke-linejoin="miter" d="M 178.510573 0.000329975 C 216.750501 0.000329975 247.750083 40.270742 247.750083 89.945637 C 247.750083 139.620532 216.750501 179.888374 178.510573 179.888374 L 69.239683 179.888374 C 30.999755 179.888374 0.000173919 139.620532 0.000173919 89.945637 C 0.000173919 40.270742 30.999755 0.000329975 69.239683 0.000329975 Z M 178.510573 0.000329975 " stroke="#381500" stroke-width="0.984555" stroke-opacity="1" stroke-miterlimit="4"/></g></g><g transform="matrix(1, 0, 0, 1, 29, 25)"><g clip-path="url(#bf7deb1146)"><g fill="#3d1700" fill-opacity="1"><g transform="translate(0.437869, 156.72022)"><g><path d="M 104.53125 -7.578125 C 104.53125 -0.148438 103.34375 6.609375 100.96875 12.703125 C 98.59375 18.796875 95.210938 23.992188 90.828125 28.296875 C 86.441406 32.609375 81.203125 35.953125 75.109375 38.328125 C 69.015625 40.710938 62.253906 41.90625 54.828125 41.90625 C 48.140625 41.90625 41.75 40.863281 35.65625 38.78125 C 29.570312 36.695312 24.222656 33.6875 19.609375 29.75 C 15.003906 25.8125 11.328125 21.019531 8.578125 15.375 C 5.828125 9.726562 4.453125 3.335938 4.453125 -3.796875 C 4.453125 -10.628906 5.640625 -16.492188 8.015625 -21.390625 C 10.398438 -26.296875 13.632812 -30.347656 17.71875 -33.546875 C 21.800781 -36.742188 26.59375 -39.117188 32.09375 -40.671875 C 37.59375 -42.234375 43.460938 -43.015625 49.703125 -43.015625 L 49.703125 -42.125 C 44.359375 -41.832031 39.414062 -40.53125 34.875 -38.21875 C 30.34375 -35.914062 26.476562 -32.90625 23.28125 -29.1875 C 20.09375 -25.476562 17.609375 -21.242188 15.828125 -16.484375 C 14.046875 -11.734375 13.15625 -6.6875 13.15625 -1.34375 C 13.15625 4.75 14.15625 10.285156 16.15625 15.265625 C 18.164062 20.242188 20.953125 24.515625 24.515625 28.078125 C 28.085938 31.648438 32.398438 34.398438 37.453125 36.328125 C 42.503906 38.265625 48.070312 39.234375 54.15625 39.234375 C 66.195312 39.234375 75.597656 35.703125 82.359375 28.640625 C 89.117188 21.578125 92.5 12.03125 92.5 0 C 92.5 -6.382812 91.050781 -12.210938 88.15625 -17.484375 C 85.257812 -22.765625 81.617188 -27.742188 77.234375 -32.421875 C 72.847656 -37.109375 68.09375 -41.601562 62.96875 -45.90625 C 57.84375 -50.21875 53.085938 -54.53125 48.703125 -58.84375 C 44.316406 -63.15625 40.675781 -67.613281 37.78125 -72.21875 C 34.882812 -76.820312 33.4375 -81.800781 33.4375 -87.15625 C 33.4375 -91.019531 34.140625 -94.507812 35.546875 -97.625 C 36.960938 -100.75 38.894531 -103.347656 41.34375 -105.421875 C 43.800781 -107.503906 46.660156 -109.101562 49.921875 -110.21875 C 53.191406 -111.332031 56.6875 -111.890625 60.40625 -111.890625 C 61.882812 -111.890625 63.328125 -111.738281 64.734375 -111.4375 C 66.148438 -111.144531 67.53125 -110.847656 68.875 -110.546875 L 74.453125 -108.765625 C 77.421875 -107.878906 80.242188 -107.4375 82.921875 -107.4375 C 84.992188 -107.4375 86.625 -108.253906 87.8125 -109.890625 L 86.265625 -84.03125 C 85.660156 -87 84.613281 -90.039062 83.125 -93.15625 C 81.644531 -96.28125 79.753906 -99.101562 77.453125 -101.625 C 75.148438 -104.15625 72.550781 -106.273438 69.65625 -107.984375 C 66.757812 -109.691406 63.601562 -110.546875 60.1875 -110.546875 C 54.6875 -110.546875 49.96875 -109.0625 46.03125 -106.09375 C 42.09375 -103.125 40.125 -98.664062 40.125 -92.71875 C 40.125 -88.113281 41.71875 -83.691406 44.90625 -79.453125 C 48.101562 -75.222656 52.078125 -71.0625 56.828125 -66.96875 C 61.585938 -62.882812 66.753906 -58.722656 72.328125 -54.484375 C 77.898438 -50.253906 83.0625 -45.757812 87.8125 -41 C 92.570312 -36.25 96.546875 -31.125 99.734375 -25.625 C 102.929688 -20.132812 104.53125 -14.117188 104.53125 -7.578125 Z M 104.53125 -7.578125 "/></g></g></g><g clip-path="url(#f47245eef0)"><g fill="#3d1700" fill-opacity="1"><g transform="translate(0.437869, 282.583022)"><g/></g></g></g></g></g><g transform="matrix(1, 0, 0, 1, 63, 110)"><g clip-path="url(#ab116b78de)"><g fill="#3d1700" fill-opacity="1"><g transform="translate(46.645719, 156.402284)"><g><path d="M 140.203125 44.578125 C 138.566406 44.722656 137.003906 44.832031 135.515625 44.90625 C 134.023438 44.988281 132.46875 45.03125 130.84375 45.03125 C 119.539062 45.03125 109.726562 42.351562 101.40625 37 C 93.09375 31.644531 85.703125 24.695312 79.234375 16.15625 C 72.773438 7.613281 67.019531 -2.039062 61.96875 -12.8125 C 56.914062 -23.582031 52.082031 -34.425781 47.46875 -45.34375 C 42.863281 -56.269531 38.222656 -66.710938 33.546875 -76.671875 C 28.867188 -86.628906 23.703125 -95.097656 18.046875 -102.078125 L 18.046875 -16.5 C 18.046875 -12.1875 19.234375 -8.65625 21.609375 -5.90625 C 23.992188 -3.15625 27.117188 -1.1875 30.984375 0 L 4.015625 0 C 12.179688 -2.53125 16.265625 -8.03125 16.265625 -16.5 L 16.265625 -104.09375 C 11.066406 -110.332031 4.828125 -115.644531 -2.453125 -120.03125 C -9.734375 -124.414062 -17.535156 -126.609375 -25.859375 -126.609375 C -29.128906 -126.609375 -32.320312 -126.347656 -35.4375 -125.828125 C -38.5625 -125.304688 -41.609375 -124.671875 -44.578125 -123.921875 L -45.25 -125.484375 C -38.113281 -127.566406 -30.90625 -128.609375 -23.625 -128.609375 C -14.257812 -128.609375 -5.789062 -126.972656 1.78125 -123.703125 C 9.363281 -120.429688 16.238281 -116.046875 22.40625 -110.546875 C 28.570312 -105.054688 34.066406 -98.707031 38.890625 -91.5 C 43.722656 -84.289062 48.109375 -76.75 52.046875 -68.875 C 55.984375 -61 59.625 -53.046875 62.96875 -45.015625 C 66.3125 -36.992188 69.46875 -29.414062 72.4375 -22.28125 L 111.890625 -109.21875 L 131.953125 -109.21875 C 128.828125 -108.320312 126.707031 -106.570312 125.59375 -103.96875 C 124.476562 -101.375 123.921875 -98.59375 123.921875 -95.625 L 123.921875 -14.265625 C 123.921875 -11.296875 124.441406 -8.4375 125.484375 -5.6875 C 126.523438 -2.9375 128.679688 -1.039062 131.953125 0 L 102.3125 0 C 105.570312 -0.894531 107.722656 -2.753906 108.765625 -5.578125 C 109.804688 -8.398438 110.328125 -11.296875 110.328125 -14.265625 L 110.328125 -102.078125 L 73.328125 -20.28125 C 75.703125 -14.1875 78.523438 -7.460938 81.796875 -0.109375 C 85.066406 7.242188 88.929688 14.113281 93.390625 20.5 C 97.847656 26.894531 103.082031 32.242188 109.09375 36.546875 C 115.113281 40.859375 121.988281 43.015625 129.71875 43.015625 C 131.5 43.015625 133.242188 42.976562 134.953125 42.90625 C 136.671875 42.832031 138.34375 42.644531 139.96875 42.34375 Z M 140.203125 44.578125 "/></g></g></g></g></g><g transform="matrix(1, 0, 0, 1, 56, 17)"><g clip-path="url(#00680e3eab)"><g fill="#3d1700" fill-opacity="1"><g transform="translate(8.196752, 38.707835)"><g><path d="M 4.71875 -4.15625 C 5.113281 -4.363281 5.453125 -4.613281 5.734375 -4.90625 C 6.023438 -5.207031 6.195312 -5.59375 6.25 -6.0625 L 6.875 -3.84375 L 0.703125 -0.390625 C 0.804688 -0.554688 0.882812 -0.71875 0.9375 -0.875 C 1 -1.039062 1.054688 -1.210938 1.109375 -1.390625 C 1.328125 -2.035156 1.539062 -2.757812 1.75 -3.5625 C 1.96875 -4.363281 2.140625 -5.175781 2.265625 -6 C 2.390625 -6.832031 2.425781 -7.648438 2.375 -8.453125 C 2.320312 -9.253906 2.125 -9.960938 1.78125 -10.578125 C 1.445312 -11.191406 1.019531 -11.566406 0.5 -11.703125 C -0.0078125 -11.847656 -0.566406 -11.753906 -1.171875 -11.421875 C -1.691406 -11.128906 -2.054688 -10.710938 -2.265625 -10.171875 C -2.484375 -9.628906 -2.582031 -9.070312 -2.5625 -8.5 L -2.703125 -8.484375 C -2.734375 -8.878906 -2.71875 -9.273438 -2.65625 -9.671875 C -2.601562 -10.066406 -2.5 -10.441406 -2.34375 -10.796875 C -2.1875 -11.160156 -1.988281 -11.492188 -1.75 -11.796875 C -1.507812 -12.109375 -1.210938 -12.363281 -0.859375 -12.5625 C -0.078125 -12.988281 0.65625 -13.085938 1.34375 -12.859375 C 2.03125 -12.640625 2.582031 -12.15625 3 -11.40625 C 3.3125 -10.84375 3.453125 -10.164062 3.421875 -9.375 C 3.398438 -8.59375 3.296875 -7.789062 3.109375 -6.96875 C 2.929688 -6.144531 2.707031 -5.335938 2.4375 -4.546875 C 2.164062 -3.765625 1.945312 -3.085938 1.78125 -2.515625 Z M 4.71875 -4.15625 "/></g></g></g><g fill="#3d1700" fill-opacity="1"><g transform="translate(16.079203, 34.309125)"><g><path d="M 5.8125 -6.21875 C 6.03125 -5.769531 6.128906 -5.328125 6.109375 -4.890625 C 6.097656 -4.460938 5.992188 -4.054688 5.796875 -3.671875 C 5.597656 -3.285156 5.332031 -2.929688 5 -2.609375 C 4.675781 -2.296875 4.3125 -2.039062 3.90625 -1.84375 C 3.5 -1.644531 3.0625 -1.507812 2.59375 -1.4375 C 2.132812 -1.375 1.695312 -1.382812 1.28125 -1.46875 C 0.863281 -1.5625 0.472656 -1.738281 0.109375 -2 C -0.253906 -2.257812 -0.546875 -2.617188 -0.765625 -3.078125 C -0.941406 -3.429688 -1.03125 -3.785156 -1.03125 -4.140625 C -1.03125 -4.492188 -0.984375 -4.84375 -0.890625 -5.1875 C -0.796875 -5.53125 -0.648438 -5.863281 -0.453125 -6.1875 C -0.253906 -6.519531 -0.0390625 -6.816406 0.1875 -7.078125 C -0.363281 -7.191406 -0.898438 -7.367188 -1.421875 -7.609375 C -1.953125 -7.859375 -2.34375 -8.242188 -2.59375 -8.765625 C -2.769531 -9.117188 -2.835938 -9.476562 -2.796875 -9.84375 C -2.765625 -10.207031 -2.664062 -10.546875 -2.5 -10.859375 C -2.332031 -11.171875 -2.109375 -11.445312 -1.828125 -11.6875 C -1.546875 -11.9375 -1.242188 -12.140625 -0.921875 -12.296875 C -0.628906 -12.441406 -0.3125 -12.539062 0.03125 -12.59375 C 0.382812 -12.65625 0.722656 -12.660156 1.046875 -12.609375 C 1.378906 -12.554688 1.6875 -12.4375 1.96875 -12.25 C 2.25 -12.0625 2.46875 -11.800781 2.625 -11.46875 C 2.769531 -11.175781 2.832031 -10.882812 2.8125 -10.59375 C 2.789062 -10.300781 2.722656 -10.019531 2.609375 -9.75 C 2.503906 -9.476562 2.367188 -9.210938 2.203125 -8.953125 C 2.035156 -8.703125 1.863281 -8.460938 1.6875 -8.234375 C 2.050781 -8.234375 2.4375 -8.191406 2.84375 -8.109375 C 3.25 -8.023438 3.644531 -7.90625 4.03125 -7.75 C 4.414062 -7.59375 4.765625 -7.382812 5.078125 -7.125 C 5.398438 -6.875 5.644531 -6.570312 5.8125 -6.21875 Z M -1.703125 -9.734375 C -1.566406 -9.453125 -1.378906 -9.21875 -1.140625 -9.03125 C -0.910156 -8.84375 -0.65625 -8.695312 -0.375 -8.59375 C -0.09375 -8.488281 0.203125 -8.414062 0.515625 -8.375 C 0.828125 -8.332031 1.128906 -8.300781 1.421875 -8.28125 C 1.710938 -8.757812 1.898438 -9.238281 1.984375 -9.71875 C 2.078125 -10.207031 2 -10.710938 1.75 -11.234375 C 1.5 -11.734375 1.144531 -12.070312 0.6875 -12.25 C 0.226562 -12.425781 -0.25 -12.394531 -0.75 -12.15625 C -1.207031 -11.925781 -1.535156 -11.585938 -1.734375 -11.140625 C -1.941406 -10.691406 -1.929688 -10.222656 -1.703125 -9.734375 Z M 0.09375 -3.5625 C 0.25 -3.21875 0.460938 -2.910156 0.734375 -2.640625 C 1.003906 -2.378906 1.300781 -2.171875 1.625 -2.015625 C 1.957031 -1.867188 2.300781 -1.789062 2.65625 -1.78125 C 3.019531 -1.769531 3.378906 -1.847656 3.734375 -2.015625 C 4.035156 -2.160156 4.296875 -2.347656 4.515625 -2.578125 C 4.734375 -2.804688 4.898438 -3.0625 5.015625 -3.34375 C 5.140625 -3.625 5.203125 -3.921875 5.203125 -4.234375 C 5.210938 -4.546875 5.144531 -4.851562 5 -5.15625 C 4.8125 -5.550781 4.535156 -5.859375 4.171875 -6.078125 C 3.816406 -6.296875 3.421875 -6.460938 2.984375 -6.578125 C 2.546875 -6.703125 2.101562 -6.796875 1.65625 -6.859375 C 1.207031 -6.921875 0.796875 -6.976562 0.421875 -7.03125 C 0.046875 -6.457031 -0.175781 -5.890625 -0.25 -5.328125 C -0.320312 -4.765625 -0.207031 -4.175781 0.09375 -3.5625 Z M 0.09375 -3.5625 "/></g></g></g><g fill="#3d1700" fill-opacity="1"><g transform="translate(23.728929, 30.642219)"><g><path d="M 2.15625 -1.671875 C 2.28125 -1.390625 2.335938 -1.085938 2.328125 -0.765625 C 2.328125 -0.453125 2.269531 -0.15625 2.15625 0.125 L 2 0.046875 C 2.03125 -0.046875 2.039062 -0.140625 2.03125 -0.234375 C 2.03125 -0.335938 2.007812 -0.441406 1.96875 -0.546875 C 1.925781 -0.640625 1.84375 -0.679688 1.71875 -0.671875 C 1.601562 -0.660156 1.484375 -0.648438 1.359375 -0.640625 C 1.234375 -0.628906 1.097656 -0.648438 0.953125 -0.703125 C 0.816406 -0.765625 0.703125 -0.90625 0.609375 -1.125 C 0.515625 -1.320312 0.503906 -1.519531 0.578125 -1.71875 C 0.648438 -1.925781 0.785156 -2.078125 0.984375 -2.171875 C 1.242188 -2.285156 1.476562 -2.289062 1.6875 -2.1875 C 1.894531 -2.082031 2.050781 -1.910156 2.15625 -1.671875 Z M 2.15625 -1.671875 "/></g></g></g><g fill="#3d1700" fill-opacity="1"><g transform="translate(27.00296, 29.18995)"><g/></g></g><g fill="#3d1700" fill-opacity="1"><g transform="translate(32.038342, 27.063881)"><g><path d="M 1.578125 -2.3125 C 1.710938 -1.90625 1.941406 -1.609375 2.265625 -1.421875 C 2.597656 -1.234375 2.976562 -1.144531 3.40625 -1.15625 L 0.78125 -0.265625 C 1.488281 -0.785156 1.703125 -1.453125 1.421875 -2.265625 L -1.125 -9.75 C -1.257812 -10.144531 -1.476562 -10.457031 -1.78125 -10.6875 C -2.082031 -10.925781 -2.445312 -11.035156 -2.875 -11.015625 L -0.65625 -11.765625 L 8.1875 -5.578125 L 5.921875 -12.21875 C 5.773438 -12.632812 5.550781 -12.941406 5.25 -13.140625 C 4.957031 -13.335938 4.597656 -13.425781 4.171875 -13.40625 L 6.703125 -14.28125 C 6.023438 -13.769531 5.828125 -13.101562 6.109375 -12.28125 L 9.21875 -3.140625 L -1.15625 -10.40625 Z M 1.578125 -2.3125 "/></g></g></g><g fill="#3d1700" fill-opacity="1"><g transform="translate(42.893328, 23.3278)"><g><path d="M 10.515625 -8.53125 C 10.703125 -7.769531 10.734375 -7.007812 10.609375 -6.25 C 10.492188 -5.5 10.25 -4.8125 9.875 -4.1875 C 9.5 -3.5625 9.007812 -3.015625 8.40625 -2.546875 C 7.8125 -2.085938 7.132812 -1.765625 6.375 -1.578125 C 5.601562 -1.378906 4.84375 -1.335938 4.09375 -1.453125 C 3.34375 -1.578125 2.65625 -1.820312 2.03125 -2.1875 C 1.40625 -2.5625 0.859375 -3.050781 0.390625 -3.65625 C -0.078125 -4.257812 -0.40625 -4.941406 -0.59375 -5.703125 C -0.789062 -6.460938 -0.828125 -7.210938 -0.703125 -7.953125 C -0.578125 -8.703125 -0.332031 -9.394531 0.03125 -10.03125 C 0.40625 -10.664062 0.890625 -11.210938 1.484375 -11.671875 C 2.085938 -12.140625 2.773438 -12.472656 3.546875 -12.671875 C 4.304688 -12.859375 5.0625 -12.890625 5.8125 -12.765625 C 6.5625 -12.648438 7.25 -12.398438 7.875 -12.015625 C 8.507812 -11.640625 9.054688 -11.15625 9.515625 -10.5625 C 9.984375 -9.96875 10.316406 -9.289062 10.515625 -8.53125 Z M 0.890625 -6.359375 C 1.035156 -5.773438 1.289062 -5.175781 1.65625 -4.5625 C 2.019531 -3.945312 2.457031 -3.40625 2.96875 -2.9375 C 3.476562 -2.476562 4.046875 -2.128906 4.671875 -1.890625 C 5.296875 -1.660156 5.941406 -1.628906 6.609375 -1.796875 C 7.242188 -1.960938 7.757812 -2.269531 8.15625 -2.71875 C 8.550781 -3.175781 8.835938 -3.695312 9.015625 -4.28125 C 9.203125 -4.875 9.300781 -5.488281 9.3125 -6.125 C 9.320312 -6.757812 9.257812 -7.347656 9.125 -7.890625 C 8.96875 -8.492188 8.710938 -9.101562 8.359375 -9.71875 C 8.003906 -10.332031 7.5625 -10.867188 7.03125 -11.328125 C 6.507812 -11.796875 5.9375 -12.140625 5.3125 -12.359375 C 4.695312 -12.585938 4.039062 -12.609375 3.34375 -12.421875 C 2.707031 -12.265625 2.195312 -11.960938 1.8125 -11.515625 C 1.4375 -11.066406 1.15625 -10.546875 0.96875 -9.953125 C 0.789062 -9.367188 0.695312 -8.757812 0.6875 -8.125 C 0.6875 -7.5 0.753906 -6.910156 0.890625 -6.359375 Z M 0.890625 -6.359375 "/></g></g></g><g fill="#3d1700" fill-opacity="1"><g transform="translate(55.313814, 20.169613)"><g><path d="M 9.5625 -13.140625 C 9.21875 -12.960938 8.953125 -12.742188 8.765625 -12.484375 C 8.585938 -12.234375 8.460938 -11.921875 8.390625 -11.546875 L 6.015625 -1.015625 L 0.265625 -10.0625 C 0.0976562 -10.300781 -0.09375 -10.550781 -0.3125 -10.8125 C -0.539062 -11.082031 -0.804688 -11.257812 -1.109375 -11.34375 L 2.0625 -11.875 C 1.894531 -11.757812 1.769531 -11.59375 1.6875 -11.375 C 1.601562 -11.15625 1.582031 -10.941406 1.625 -10.734375 C 1.632812 -10.660156 1.742188 -10.4375 1.953125 -10.0625 C 2.171875 -9.6875 2.4375 -9.242188 2.75 -8.734375 C 3.0625 -8.222656 3.398438 -7.675781 3.765625 -7.09375 C 4.140625 -6.507812 4.503906 -5.953125 4.859375 -5.421875 C 5.210938 -4.890625 5.519531 -4.414062 5.78125 -4 C 6.039062 -3.59375 6.21875 -3.316406 6.3125 -3.171875 C 6.351562 -3.367188 6.425781 -3.710938 6.53125 -4.203125 C 6.644531 -4.691406 6.773438 -5.242188 6.921875 -5.859375 C 7.066406 -6.484375 7.21875 -7.140625 7.375 -7.828125 C 7.53125 -8.515625 7.671875 -9.148438 7.796875 -9.734375 C 7.921875 -10.316406 8.023438 -10.816406 8.109375 -11.234375 C 8.203125 -11.648438 8.238281 -11.894531 8.21875 -11.96875 C 8.1875 -12.195312 8.0625 -12.378906 7.84375 -12.515625 C 7.625 -12.648438 7.40625 -12.726562 7.1875 -12.75 Z M 9.5625 -13.140625 "/></g></g></g><g fill="#3d1700" fill-opacity="1"><g transform="translate(67.325346, 18.171561)"><g><path d="M 5.21875 -0.703125 C 5.9375 -0.765625 6.625 -1 7.28125 -1.40625 C 7.945312 -1.8125 8.421875 -2.363281 8.703125 -3.0625 L 8.390625 -0.8125 L 0.8125 -0.078125 C 1.144531 -0.210938 1.347656 -0.425781 1.421875 -0.71875 C 1.503906 -1.019531 1.53125 -1.328125 1.5 -1.640625 L 0.671875 -10.046875 C 0.640625 -10.359375 0.554688 -10.644531 0.421875 -10.90625 C 0.296875 -11.164062 0.0546875 -11.328125 -0.296875 -11.390625 L 7.109375 -12.109375 L 7.796875 -9.96875 C 7.390625 -10.625 6.867188 -11.082031 6.234375 -11.34375 C 5.609375 -11.613281 4.914062 -11.710938 4.15625 -11.640625 L 1.953125 -11.421875 L 2.484375 -6.125 L 3.921875 -6.265625 C 4.328125 -6.304688 4.695312 -6.429688 5.03125 -6.640625 C 5.363281 -6.847656 5.570312 -7.1875 5.65625 -7.65625 L 5.90625 -5.125 C 5.738281 -5.539062 5.46875 -5.8125 5.09375 -5.9375 C 4.726562 -6.070312 4.34375 -6.117188 3.9375 -6.078125 L 2.5 -5.9375 L 3.03125 -0.484375 Z M 5.21875 -0.703125 "/></g></g></g><g fill="#3d1700" fill-opacity="1"><g transform="translate(76.783323, 17.134398)"><g><path d="M 2.265625 -1.765625 C 2.273438 -1.316406 2.40625 -0.953125 2.65625 -0.671875 C 2.90625 -0.390625 3.234375 -0.1875 3.640625 -0.0625 L 0.828125 -0.015625 C 1.234375 -0.148438 1.546875 -0.363281 1.765625 -0.65625 C 1.992188 -0.945312 2.101562 -1.316406 2.09375 -1.765625 L 1.9375 -9.875 C 1.9375 -10.238281 1.800781 -10.550781 1.53125 -10.8125 C 1.269531 -11.070312 0.960938 -11.257812 0.609375 -11.375 L 3.171875 -11.421875 L 8.03125 -2.109375 L 11.875 -11.578125 L 13.921875 -11.625 C 13.597656 -11.5 13.378906 -11.304688 13.265625 -11.046875 C 13.160156 -10.785156 13.109375 -10.5 13.109375 -10.1875 L 13.265625 -1.703125 C 13.273438 -1.398438 13.335938 -1.109375 13.453125 -0.828125 C 13.578125 -0.546875 13.804688 -0.359375 14.140625 -0.265625 L 11.078125 -0.203125 C 11.421875 -0.316406 11.644531 -0.515625 11.75 -0.796875 C 11.863281 -1.078125 11.914062 -1.367188 11.90625 -1.671875 L 11.734375 -10.671875 L 7.4375 -0.15625 L 2.109375 -10.453125 Z M 2.265625 -1.765625 "/></g></g></g><g fill="#3d1700" fill-opacity="1"><g transform="translate(91.45125, 16.941509)"><g><path d="M 9.671875 -2.53125 C 9.640625 -1.96875 9.5 -1.492188 9.25 -1.109375 C 9 -0.734375 8.679688 -0.429688 8.296875 -0.203125 C 7.910156 0.015625 7.476562 0.164062 7 0.25 C 6.519531 0.34375 6.035156 0.375 5.546875 0.34375 L 0.8125 0.046875 C 1.164062 -0.0234375 1.398438 -0.203125 1.515625 -0.484375 C 1.640625 -0.773438 1.710938 -1.078125 1.734375 -1.390625 L 2.25 -9.859375 C 2.269531 -10.160156 2.226562 -10.445312 2.125 -10.71875 C 2.03125 -10.988281 1.828125 -11.179688 1.515625 -11.296875 L 5.453125 -11.046875 C 5.910156 -11.023438 6.351562 -10.953125 6.78125 -10.828125 C 7.207031 -10.703125 7.582031 -10.523438 7.90625 -10.296875 C 8.238281 -10.066406 8.503906 -9.769531 8.703125 -9.40625 C 8.898438 -9.050781 8.984375 -8.613281 8.953125 -8.09375 C 8.910156 -7.457031 8.679688 -6.9375 8.265625 -6.53125 C 7.859375 -6.125 7.351562 -5.859375 6.75 -5.734375 C 7.1875 -5.660156 7.585938 -5.535156 7.953125 -5.359375 C 8.316406 -5.191406 8.628906 -4.96875 8.890625 -4.6875 C 9.160156 -4.414062 9.363281 -4.101562 9.5 -3.75 C 9.644531 -3.394531 9.703125 -2.988281 9.671875 -2.53125 Z M 3.40625 -5.953125 L 4.828125 -5.859375 C 5.617188 -5.816406 6.253906 -5.988281 6.734375 -6.375 C 7.210938 -6.769531 7.476562 -7.367188 7.53125 -8.171875 C 7.582031 -8.953125 7.410156 -9.582031 7.015625 -10.0625 C 6.617188 -10.550781 6.023438 -10.820312 5.234375 -10.875 L 3.71875 -10.96875 Z M 3.046875 0 L 5.171875 0.125 C 6.097656 0.1875 6.8125 -0.03125 7.3125 -0.53125 C 7.8125 -1.03125 8.085938 -1.726562 8.140625 -2.625 C 8.203125 -3.539062 7.976562 -4.257812 7.46875 -4.78125 C 6.957031 -5.3125 6.25 -5.601562 5.34375 -5.65625 L 3.40625 -5.78125 Z M 3.046875 0 "/></g></g></g><g fill="#3d1700" fill-opacity="1"><g transform="translate(101.515923, 17.54986)"><g><path d="M 3.21875 -1.03125 C 3.175781 -0.71875 3.195312 -0.421875 3.28125 -0.140625 C 3.363281 0.140625 3.554688 0.351562 3.859375 0.5 L 0.828125 0.109375 C 1.160156 0.046875 1.394531 -0.117188 1.53125 -0.390625 C 1.675781 -0.660156 1.769531 -0.953125 1.8125 -1.265625 L 2.890625 -9.65625 C 2.929688 -9.96875 2.914062 -10.257812 2.84375 -10.53125 C 2.78125 -10.8125 2.59375 -11.019531 2.28125 -11.15625 L 6.171875 -10.65625 C 6.734375 -10.582031 7.269531 -10.445312 7.78125 -10.25 C 8.289062 -10.0625 8.734375 -9.804688 9.109375 -9.484375 C 9.492188 -9.171875 9.78125 -8.78125 9.96875 -8.3125 C 10.164062 -7.84375 10.226562 -7.296875 10.15625 -6.671875 C 10.03125 -5.765625 9.660156 -5.054688 9.046875 -4.546875 C 8.429688 -4.046875 7.691406 -3.757812 6.828125 -3.6875 L 8.484375 -0.015625 C 8.617188 0.242188 8.785156 0.488281 8.984375 0.71875 C 9.191406 0.945312 9.421875 1.125 9.671875 1.25 L 7.53125 0.96875 L 5.375 -3.8125 L 3.609375 -4.046875 Z M 3.625 -4.21875 L 5.203125 -4.015625 C 6.160156 -3.890625 6.957031 -4.085938 7.59375 -4.609375 C 8.226562 -5.128906 8.609375 -5.875 8.734375 -6.84375 C 8.859375 -7.851562 8.6875 -8.679688 8.21875 -9.328125 C 7.757812 -9.972656 7.03125 -10.359375 6.03125 -10.484375 L 4.453125 -10.6875 Z M 3.625 -4.21875 "/></g></g></g><g fill="#3d1700" fill-opacity="1"><g transform="translate(111.772703, 18.813237)"><g><path d="M 13.171875 -3.078125 C 13.015625 -2.304688 12.71875 -1.609375 12.28125 -0.984375 C 11.84375 -0.367188 11.316406 0.132812 10.703125 0.53125 C 10.097656 0.9375 9.421875 1.21875 8.671875 1.375 C 7.929688 1.53125 7.175781 1.53125 6.40625 1.375 C 5.632812 1.207031 4.941406 0.90625 4.328125 0.46875 C 3.710938 0.0390625 3.203125 -0.476562 2.796875 -1.09375 C 2.390625 -1.707031 2.109375 -2.382812 1.953125 -3.125 C 1.796875 -3.863281 1.796875 -4.617188 1.953125 -5.390625 C 2.117188 -6.160156 2.421875 -6.851562 2.859375 -7.46875 C 3.296875 -8.09375 3.820312 -8.601562 4.4375 -9 C 5.050781 -9.40625 5.722656 -9.6875 6.453125 -9.84375 C 7.191406 -10.007812 7.945312 -10.007812 8.71875 -9.84375 C 9.488281 -9.6875 10.1875 -9.390625 10.8125 -8.953125 C 11.4375 -8.515625 11.945312 -7.988281 12.34375 -7.375 C 12.75 -6.757812 13.03125 -6.082031 13.1875 -5.34375 C 13.34375 -4.601562 13.335938 -3.847656 13.171875 -3.078125 Z M 3.59375 -5.328125 C 3.46875 -4.734375 3.429688 -4.082031 3.484375 -3.375 C 3.546875 -2.664062 3.703125 -1.988281 3.953125 -1.34375 C 4.203125 -0.695312 4.554688 -0.132812 5.015625 0.34375 C 5.472656 0.820312 6.046875 1.132812 6.734375 1.28125 C 7.367188 1.40625 7.960938 1.347656 8.515625 1.109375 C 9.078125 0.878906 9.566406 0.539062 9.984375 0.09375 C 10.398438 -0.351562 10.753906 -0.863281 11.046875 -1.4375 C 11.335938 -2.007812 11.539062 -2.570312 11.65625 -3.125 C 11.78125 -3.738281 11.816406 -4.394531 11.765625 -5.09375 C 11.710938 -5.800781 11.550781 -6.472656 11.28125 -7.109375 C 11.019531 -7.753906 10.65625 -8.3125 10.1875 -8.78125 C 9.726562 -9.25 9.144531 -9.5625 8.4375 -9.71875 C 7.800781 -9.84375 7.210938 -9.789062 6.671875 -9.5625 C 6.140625 -9.332031 5.660156 -8.988281 5.234375 -8.53125 C 4.816406 -8.082031 4.46875 -7.570312 4.1875 -7 C 3.90625 -6.4375 3.707031 -5.878906 3.59375 -5.328125 Z M 3.59375 -5.328125 "/></g></g></g><g fill="#3d1700" fill-opacity="1"><g transform="translate(124.386898, 21.538836)"><g><path d="M 2.71875 0.015625 C 2.632812 0.316406 2.492188 0.59375 2.296875 0.84375 C 2.097656 1.101562 1.867188 1.296875 1.609375 1.421875 L 1.53125 1.28125 C 1.613281 1.21875 1.679688 1.148438 1.734375 1.078125 C 1.796875 1.003906 1.84375 0.910156 1.875 0.796875 C 1.90625 0.703125 1.867188 0.617188 1.765625 0.546875 C 1.671875 0.472656 1.570312 0.398438 1.46875 0.328125 C 1.363281 0.265625 1.269531 0.164062 1.1875 0.03125 C 1.113281 -0.09375 1.109375 -0.269531 1.171875 -0.5 C 1.222656 -0.71875 1.34375 -0.882812 1.53125 -1 C 1.71875 -1.113281 1.914062 -1.144531 2.125 -1.09375 C 2.394531 -1.019531 2.578125 -0.878906 2.671875 -0.671875 C 2.765625 -0.460938 2.78125 -0.234375 2.71875 0.015625 Z M 2.71875 0.015625 "/></g></g></g><g fill="#3d1700" fill-opacity="1"><g transform="translate(127.853781, 22.432799)"><g/></g></g><g fill="#3d1700" fill-opacity="1"><g transform="translate(133.135145, 23.93863)"><g><path d="M 6.234375 0.765625 C 6.660156 0.910156 7.078125 0.992188 7.484375 1.015625 C 7.898438 1.035156 8.296875 0.90625 8.671875 0.625 L 7.4375 2.578125 L 0.765625 0.265625 C 0.953125 0.222656 1.125 0.171875 1.28125 0.109375 C 1.445312 0.046875 1.609375 -0.0234375 1.765625 -0.109375 C 2.398438 -0.367188 3.085938 -0.6875 3.828125 -1.0625 C 4.566406 -1.4375 5.285156 -1.851562 5.984375 -2.3125 C 6.691406 -2.769531 7.328125 -3.28125 7.890625 -3.84375 C 8.453125 -4.40625 8.847656 -5.019531 9.078125 -5.6875 C 9.304688 -6.351562 9.300781 -6.925781 9.0625 -7.40625 C 8.832031 -7.894531 8.394531 -8.253906 7.75 -8.484375 C 7.1875 -8.671875 6.628906 -8.664062 6.078125 -8.46875 C 5.535156 -8.269531 5.054688 -7.972656 4.640625 -7.578125 L 4.53125 -7.671875 C 4.800781 -7.953125 5.101562 -8.203125 5.4375 -8.421875 C 5.769531 -8.640625 6.125 -8.8125 6.5 -8.9375 C 6.875 -9.0625 7.253906 -9.132812 7.640625 -9.15625 C 8.035156 -9.175781 8.425781 -9.117188 8.8125 -8.984375 C 9.644531 -8.691406 10.203125 -8.210938 10.484375 -7.546875 C 10.773438 -6.890625 10.78125 -6.160156 10.5 -5.359375 C 10.289062 -4.742188 9.882812 -4.1875 9.28125 -3.6875 C 8.6875 -3.1875 8.019531 -2.722656 7.28125 -2.296875 C 6.539062 -1.878906 5.785156 -1.507812 5.015625 -1.1875 C 4.253906 -0.875 3.601562 -0.59375 3.0625 -0.34375 Z M 6.234375 0.765625 "/></g></g></g><g fill="#3d1700" fill-opacity="1"><g transform="translate(141.657297, 26.884467)"><g><path d="M 10.390625 -1.859375 C 10.160156 -1.304688 9.84375 -0.75 9.4375 -0.1875 C 9.03125 0.363281 8.5625 0.832031 8.03125 1.21875 C 7.5 1.601562 6.921875 1.867188 6.296875 2.015625 C 5.679688 2.171875 5.050781 2.113281 4.40625 1.84375 C 3.769531 1.582031 3.28125 1.175781 2.9375 0.625 C 2.59375 0.0703125 2.375 -0.523438 2.28125 -1.171875 C 2.1875 -1.816406 2.191406 -2.476562 2.296875 -3.15625 C 2.398438 -3.84375 2.566406 -4.460938 2.796875 -5.015625 C 3.015625 -5.554688 3.328125 -6.101562 3.734375 -6.65625 C 4.148438 -7.21875 4.625 -7.695312 5.15625 -8.09375 C 5.6875 -8.5 6.265625 -8.769531 6.890625 -8.90625 C 7.515625 -9.039062 8.144531 -8.976562 8.78125 -8.71875 C 9.425781 -8.445312 9.914062 -8.035156 10.25 -7.484375 C 10.582031 -6.941406 10.789062 -6.347656 10.875 -5.703125 C 10.96875 -5.054688 10.960938 -4.390625 10.859375 -3.703125 C 10.765625 -3.015625 10.609375 -2.398438 10.390625 -1.859375 Z M 4.234375 -4.421875 C 4.085938 -4.078125 3.929688 -3.597656 3.765625 -2.984375 C 3.597656 -2.378906 3.488281 -1.757812 3.4375 -1.125 C 3.382812 -0.5 3.421875 0.078125 3.546875 0.609375 C 3.679688 1.148438 3.984375 1.515625 4.453125 1.703125 C 4.921875 1.898438 5.390625 1.859375 5.859375 1.578125 C 6.335938 1.296875 6.78125 0.910156 7.1875 0.421875 C 7.59375 -0.0546875 7.953125 -0.566406 8.265625 -1.109375 C 8.578125 -1.660156 8.804688 -2.109375 8.953125 -2.453125 C 9.046875 -2.679688 9.148438 -2.972656 9.265625 -3.328125 C 9.378906 -3.679688 9.476562 -4.0625 9.5625 -4.46875 C 9.644531 -4.875 9.707031 -5.289062 9.75 -5.71875 C 9.789062 -6.15625 9.785156 -6.5625 9.734375 -6.9375 C 9.679688 -7.320312 9.578125 -7.65625 9.421875 -7.9375 C 9.265625 -8.226562 9.03125 -8.441406 8.71875 -8.578125 C 8.40625 -8.703125 8.09375 -8.71875 7.78125 -8.625 C 7.46875 -8.53125 7.160156 -8.363281 6.859375 -8.125 C 6.566406 -7.894531 6.28125 -7.613281 6 -7.28125 C 5.71875 -6.957031 5.460938 -6.617188 5.234375 -6.265625 C 5.003906 -5.921875 4.800781 -5.582031 4.625 -5.25 C 4.457031 -4.925781 4.328125 -4.648438 4.234375 -4.421875 Z M 4.234375 -4.421875 "/></g></g></g><g fill="#3d1700" fill-opacity="1"><g transform="translate(150.285248, 30.463508)"><g><path d="M 6.09375 1.5 C 6.5 1.695312 6.90625 1.828125 7.3125 1.890625 C 7.71875 1.960938 8.128906 1.890625 8.546875 1.671875 L 7.078125 3.453125 L 0.734375 0.359375 C 0.921875 0.347656 1.097656 0.316406 1.265625 0.265625 C 1.441406 0.222656 1.609375 0.171875 1.765625 0.109375 C 2.421875 -0.078125 3.140625 -0.3125 3.921875 -0.59375 C 4.703125 -0.882812 5.46875 -1.210938 6.21875 -1.578125 C 6.96875 -1.953125 7.65625 -2.382812 8.28125 -2.875 C 8.914062 -3.375 9.390625 -3.941406 9.703125 -4.578125 C 10.015625 -5.203125 10.082031 -5.769531 9.90625 -6.28125 C 9.726562 -6.789062 9.332031 -7.195312 8.71875 -7.5 C 8.175781 -7.757812 7.617188 -7.820312 7.046875 -7.6875 C 6.472656 -7.550781 5.960938 -7.316406 5.515625 -6.984375 L 5.421875 -7.09375 C 5.722656 -7.332031 6.050781 -7.539062 6.40625 -7.71875 C 6.757812 -7.894531 7.128906 -8.019531 7.515625 -8.09375 C 7.898438 -8.175781 8.285156 -8.203125 8.671875 -8.171875 C 9.066406 -8.140625 9.445312 -8.035156 9.8125 -7.859375 C 10.613281 -7.472656 11.113281 -6.9375 11.3125 -6.25 C 11.519531 -5.5625 11.4375 -4.832031 11.0625 -4.0625 C 10.78125 -3.476562 10.3125 -2.972656 9.65625 -2.546875 C 9.007812 -2.117188 8.289062 -1.742188 7.5 -1.421875 C 6.71875 -1.097656 5.925781 -0.820312 5.125 -0.59375 C 4.332031 -0.363281 3.648438 -0.15625 3.078125 0.03125 Z M 6.09375 1.5 "/></g></g></g><g fill="#3d1700" fill-opacity="1"><g transform="translate(158.400141, 34.412585)"><g><path d="M 9.015625 0.5 C 8.753906 0.96875 8.425781 1.363281 8.03125 1.6875 C 7.644531 2.019531 7.226562 2.265625 6.78125 2.421875 C 6.332031 2.578125 5.859375 2.640625 5.359375 2.609375 C 4.859375 2.585938 4.375 2.445312 3.90625 2.1875 C 3.332031 1.863281 2.910156 1.453125 2.640625 0.953125 C 2.378906 0.460938 2.234375 -0.0625 2.203125 -0.625 C 2.171875 -1.195312 2.226562 -1.769531 2.375 -2.34375 C 2.53125 -2.914062 2.742188 -3.441406 3.015625 -3.921875 C 3.429688 -4.660156 3.941406 -5.273438 4.546875 -5.765625 C 5.148438 -6.265625 5.804688 -6.632812 6.515625 -6.875 C 7.222656 -7.113281 7.96875 -7.234375 8.75 -7.234375 C 9.539062 -7.234375 10.328125 -7.113281 11.109375 -6.875 L 11.078125 -6.625 C 10.441406 -6.851562 9.820312 -6.941406 9.21875 -6.890625 C 8.625 -6.847656 8.0625 -6.703125 7.53125 -6.453125 C 7.007812 -6.203125 6.523438 -5.863281 6.078125 -5.4375 C 5.628906 -5.007812 5.226562 -4.535156 4.875 -4.015625 C 5.269531 -4.253906 5.710938 -4.382812 6.203125 -4.40625 C 6.703125 -4.4375 7.148438 -4.34375 7.546875 -4.125 C 7.992188 -3.875 8.367188 -3.578125 8.671875 -3.234375 C 8.972656 -2.890625 9.191406 -2.515625 9.328125 -2.109375 C 9.460938 -1.710938 9.507812 -1.289062 9.46875 -0.84375 C 9.425781 -0.394531 9.273438 0.0507812 9.015625 0.5 Z M 4.140625 -2.6875 C 3.984375 -2.40625 3.816406 -2.046875 3.640625 -1.609375 C 3.472656 -1.171875 3.347656 -0.71875 3.265625 -0.25 C 3.191406 0.207031 3.203125 0.644531 3.296875 1.0625 C 3.390625 1.488281 3.625 1.804688 4 2.015625 C 4.375 2.222656 4.734375 2.296875 5.078125 2.234375 C 5.429688 2.179688 5.753906 2.050781 6.046875 1.84375 C 6.347656 1.644531 6.613281 1.382812 6.84375 1.0625 C 7.082031 0.75 7.285156 0.445312 7.453125 0.15625 C 7.609375 -0.113281 7.765625 -0.441406 7.921875 -0.828125 C 8.085938 -1.222656 8.195312 -1.613281 8.25 -2 C 8.300781 -2.394531 8.273438 -2.769531 8.171875 -3.125 C 8.066406 -3.476562 7.835938 -3.753906 7.484375 -3.953125 C 7.179688 -4.117188 6.863281 -4.203125 6.53125 -4.203125 C 6.207031 -4.203125 5.894531 -4.132812 5.59375 -4 C 5.300781 -3.875 5.023438 -3.691406 4.765625 -3.453125 C 4.503906 -3.222656 4.296875 -2.96875 4.140625 -2.6875 Z M 4.140625 -2.6875 "/></g></g></g></g></g><g transform="matrix(1, 0, 0, 1, 64, 334)"><g clip-path="url(#b462cfd6d7)"><g fill="#3d1700" fill-opacity="1"><g transform="translate(3.376258, 16.30373)"><g><path d="M 9.015625 0.515625 C 8.828125 0.992188 8.554688 1.367188 8.203125 1.640625 C 7.859375 1.910156 7.472656 2.09375 7.046875 2.1875 C 6.628906 2.28125 6.191406 2.289062 5.734375 2.21875 C 5.285156 2.15625 4.847656 2.039062 4.421875 1.875 C 4.148438 1.769531 3.894531 1.628906 3.65625 1.453125 C 3.414062 1.273438 3.191406 1.101562 2.984375 0.9375 C 2.785156 0.769531 2.585938 0.601562 2.390625 0.4375 C 2.191406 0.28125 1.976562 0.15625 1.75 0.0625 C 1.59375 0.0078125 1.421875 -0.00390625 1.234375 0.015625 C 1.054688 0.046875 0.898438 0.101562 0.765625 0.1875 L 2.046875 -3.0625 C 2.035156 -2.632812 2.070312 -2.175781 2.15625 -1.6875 C 2.238281 -1.207031 2.378906 -0.75 2.578125 -0.3125 C 2.773438 0.113281 3.03125 0.503906 3.34375 0.859375 C 3.664062 1.210938 4.039062 1.472656 4.46875 1.640625 C 4.78125 1.765625 5.101562 1.859375 5.4375 1.921875 C 5.78125 1.984375 6.109375 1.988281 6.421875 1.9375 C 6.734375 1.882812 7.019531 1.765625 7.28125 1.578125 C 7.539062 1.390625 7.742188 1.117188 7.890625 0.765625 C 8.066406 0.316406 8.0625 -0.109375 7.875 -0.515625 C 7.695312 -0.929688 7.425781 -1.351562 7.0625 -1.78125 C 6.707031 -2.207031 6.304688 -2.632812 5.859375 -3.0625 C 5.410156 -3.5 5.015625 -3.953125 4.671875 -4.421875 C 4.335938 -4.890625 4.097656 -5.390625 3.953125 -5.921875 C 3.816406 -6.453125 3.867188 -7.019531 4.109375 -7.625 C 4.296875 -8.09375 4.546875 -8.460938 4.859375 -8.734375 C 5.171875 -9.003906 5.519531 -9.195312 5.90625 -9.3125 C 6.300781 -9.4375 6.710938 -9.476562 7.140625 -9.4375 C 7.578125 -9.40625 8.007812 -9.304688 8.4375 -9.140625 C 8.726562 -9.023438 8.984375 -8.875 9.203125 -8.6875 C 9.429688 -8.507812 9.640625 -8.328125 9.828125 -8.140625 C 10.015625 -7.960938 10.1875 -7.796875 10.34375 -7.640625 C 10.5 -7.492188 10.640625 -7.394531 10.765625 -7.34375 C 10.972656 -7.269531 11.15625 -7.269531 11.3125 -7.34375 C 11.476562 -7.425781 11.625 -7.53125 11.75 -7.65625 C 11.550781 -7.21875 11.34375 -6.789062 11.125 -6.375 C 10.914062 -5.957031 10.726562 -5.523438 10.5625 -5.078125 C 10.582031 -5.453125 10.550781 -5.84375 10.46875 -6.25 C 10.382812 -6.65625 10.242188 -7.035156 10.046875 -7.390625 C 9.859375 -7.742188 9.617188 -8.0625 9.328125 -8.34375 C 9.046875 -8.625 8.710938 -8.835938 8.328125 -8.984375 C 8.046875 -9.097656 7.75 -9.171875 7.4375 -9.203125 C 7.125 -9.242188 6.828125 -9.234375 6.546875 -9.171875 C 6.273438 -9.109375 6.023438 -8.984375 5.796875 -8.796875 C 5.566406 -8.609375 5.390625 -8.351562 5.265625 -8.03125 C 5.085938 -7.582031 5.085938 -7.140625 5.265625 -6.703125 C 5.441406 -6.273438 5.707031 -5.84375 6.0625 -5.40625 C 6.425781 -4.96875 6.828125 -4.53125 7.265625 -4.09375 C 7.710938 -3.65625 8.101562 -3.191406 8.4375 -2.703125 C 8.769531 -2.222656 9.007812 -1.71875 9.15625 -1.1875 C 9.300781 -0.65625 9.253906 -0.0859375 9.015625 0.515625 Z M 9.015625 0.515625 "/></g></g></g><g fill="#3d1700" fill-opacity="1"><g transform="translate(12.126224, 19.765266)"><g><path d="M 10.171875 -0.6875 C 9.773438 0.5 9.1875 1.332031 8.40625 1.8125 C 7.632812 2.289062 6.625 2.320312 5.375 1.90625 C 4.113281 1.488281 3.265625 0.84375 2.828125 -0.03125 C 2.398438 -0.914062 2.398438 -1.992188 2.828125 -3.265625 L 4.703125 -8.90625 C 4.796875 -9.207031 4.835938 -9.5 4.828125 -9.78125 C 4.816406 -10.070312 4.660156 -10.320312 4.359375 -10.53125 L 7.265625 -9.5625 C 6.929688 -9.5625 6.664062 -9.453125 6.46875 -9.234375 C 6.28125 -9.015625 6.140625 -8.753906 6.046875 -8.453125 L 4.203125 -2.9375 C 4.054688 -2.476562 3.960938 -2.007812 3.921875 -1.53125 C 3.890625 -1.0625 3.9375 -0.625 4.0625 -0.21875 C 4.195312 0.1875 4.414062 0.550781 4.71875 0.875 C 5.03125 1.195312 5.453125 1.445312 5.984375 1.625 C 6.492188 1.789062 6.957031 1.847656 7.375 1.796875 C 7.800781 1.742188 8.179688 1.601562 8.515625 1.375 C 8.859375 1.15625 9.15625 0.859375 9.40625 0.484375 C 9.65625 0.109375 9.859375 -0.304688 10.015625 -0.765625 L 11.828125 -6.234375 C 12.097656 -7.054688 11.875 -7.734375 11.15625 -8.265625 L 13.734375 -7.40625 C 12.847656 -7.40625 12.269531 -6.992188 12 -6.171875 Z M 10.171875 -0.6875 "/></g></g></g><g fill="#3d1700" fill-opacity="1"><g transform="translate(23.110189, 23.390156)"><g><path d="M 5.125 1.203125 C 5.820312 1.390625 6.550781 1.410156 7.3125 1.265625 C 8.070312 1.128906 8.710938 0.785156 9.234375 0.234375 L 8.140625 2.21875 L 0.78125 0.21875 C 1.144531 0.195312 1.410156 0.0664062 1.578125 -0.171875 C 1.753906 -0.421875 1.882812 -0.695312 1.96875 -1 L 4.203125 -9.140625 C 4.285156 -9.441406 4.3125 -9.738281 4.28125 -10.03125 C 4.25 -10.332031 4.082031 -10.566406 3.78125 -10.734375 L 10.96875 -8.765625 L 10.84375 -6.546875 C 10.675781 -7.304688 10.347656 -7.921875 9.859375 -8.390625 C 9.378906 -8.859375 8.773438 -9.191406 8.046875 -9.390625 L 5.90625 -9.96875 L 4.5 -4.84375 L 5.890625 -4.46875 C 6.285156 -4.351562 6.675781 -4.335938 7.0625 -4.421875 C 7.457031 -4.503906 7.773438 -4.738281 8.015625 -5.125 L 7.34375 -2.671875 C 7.34375 -3.140625 7.191406 -3.492188 6.890625 -3.734375 C 6.585938 -3.984375 6.238281 -4.164062 5.84375 -4.28125 L 4.453125 -4.65625 L 3 0.625 Z M 5.125 1.203125 "/></g></g></g><g fill="#3d1700" fill-opacity="1"><g transform="translate(32.713148, 26.011216)"><g><path d="M 5.453125 1 C 6.210938 1.164062 6.890625 1.113281 7.484375 0.84375 C 8.078125 0.582031 8.632812 0.179688 9.15625 -0.359375 L 8.140625 1.796875 L 0.796875 0.171875 C 1.148438 0.140625 1.410156 0 1.578125 -0.25 C 1.742188 -0.5 1.859375 -0.78125 1.921875 -1.09375 L 3.75 -9.34375 C 3.8125 -9.644531 3.816406 -9.9375 3.765625 -10.21875 C 3.722656 -10.5 3.550781 -10.734375 3.25 -10.921875 L 6.234375 -10.265625 C 5.890625 -10.210938 5.632812 -10.070312 5.46875 -9.84375 C 5.300781 -9.613281 5.1875 -9.347656 5.125 -9.046875 L 3.03125 0.46875 Z M 5.453125 1 "/></g></g></g><g fill="#3d1700" fill-opacity="1"><g transform="translate(42.320912, 28.126982)"><g><path d="M 5.21875 0.6875 C 5.925781 0.8125 6.648438 0.765625 7.390625 0.546875 C 8.140625 0.328125 8.742188 -0.078125 9.203125 -0.671875 L 8.3125 1.40625 L 0.796875 0.140625 C 1.160156 0.0859375 1.414062 -0.0664062 1.5625 -0.328125 C 1.71875 -0.597656 1.820312 -0.890625 1.875 -1.203125 L 3.28125 -9.53125 C 3.332031 -9.84375 3.328125 -10.140625 3.265625 -10.421875 C 3.210938 -10.703125 3.019531 -10.914062 2.6875 -11.0625 L 10.046875 -9.828125 L 10.140625 -7.59375 C 9.910156 -8.332031 9.523438 -8.910156 8.984375 -9.328125 C 8.453125 -9.742188 7.8125 -10.015625 7.0625 -10.140625 L 4.875 -10.5 L 3.984375 -5.265625 L 5.40625 -5.03125 C 5.8125 -4.957031 6.203125 -4.976562 6.578125 -5.09375 C 6.960938 -5.207031 7.253906 -5.476562 7.453125 -5.90625 L 7.03125 -3.390625 C 6.976562 -3.847656 6.789062 -4.1875 6.46875 -4.40625 C 6.144531 -4.625 5.78125 -4.769531 5.375 -4.84375 L 3.953125 -5.078125 L 3.046875 0.328125 Z M 5.21875 0.6875 "/></g></g></g><g fill="#3d1700" fill-opacity="1"><g transform="translate(52.152199, 29.810307)"><g><path d="M 2.421875 -1.421875 C 2.367188 -1.003906 2.445312 -0.640625 2.65625 -0.328125 C 2.875 -0.015625 3.179688 0.226562 3.578125 0.40625 L 0.828125 0.09375 C 1.679688 -0.0703125 2.15625 -0.582031 2.25 -1.4375 L 3.140625 -9.296875 C 3.179688 -9.710938 3.113281 -10.09375 2.9375 -10.4375 C 2.757812 -10.78125 2.476562 -11.03125 2.09375 -11.1875 L 4.421875 -10.921875 L 9.78125 -1.5625 L 10.5625 -8.53125 C 10.613281 -8.96875 10.539062 -9.335938 10.34375 -9.640625 C 10.15625 -9.953125 9.867188 -10.191406 9.484375 -10.359375 L 12.140625 -10.0625 C 11.304688 -9.882812 10.84375 -9.363281 10.75 -8.5 L 9.671875 1.09375 L 3.390625 -9.90625 Z M 2.421875 -1.421875 "/></g></g></g><g fill="#3d1700" fill-opacity="1"><g transform="translate(64.037497, 31.141262)"><g><path d="M 8.65625 -1.328125 C 8.113281 -0.710938 7.546875 -0.269531 6.953125 0 C 6.359375 0.28125 5.65625 0.398438 4.84375 0.359375 C 4.300781 0.328125 3.773438 0.21875 3.265625 0.03125 C 2.765625 -0.15625 2.328125 -0.414062 1.953125 -0.75 C 1.585938 -1.09375 1.300781 -1.492188 1.09375 -1.953125 C 0.894531 -2.421875 0.8125 -2.941406 0.84375 -3.515625 C 0.882812 -4.347656 1.144531 -5.070312 1.625 -5.6875 C 2.113281 -6.3125 2.753906 -6.753906 3.546875 -7.015625 C 3.359375 -7.304688 3.207031 -7.613281 3.09375 -7.9375 C 2.976562 -8.269531 2.929688 -8.613281 2.953125 -8.96875 C 2.972656 -9.320312 3.0625 -9.632812 3.21875 -9.90625 C 3.382812 -10.1875 3.59375 -10.425781 3.84375 -10.625 C 4.101562 -10.820312 4.390625 -10.96875 4.703125 -11.0625 C 5.023438 -11.15625 5.351562 -11.191406 5.6875 -11.171875 C 5.945312 -11.160156 6.207031 -11.101562 6.46875 -11 C 6.726562 -10.894531 6.960938 -10.753906 7.171875 -10.578125 C 7.390625 -10.410156 7.5625 -10.207031 7.6875 -9.96875 C 7.8125 -9.738281 7.867188 -9.476562 7.859375 -9.1875 C 7.847656 -8.925781 7.765625 -8.703125 7.609375 -8.515625 C 7.460938 -8.335938 7.273438 -8.179688 7.046875 -8.046875 C 7.078125 -8.160156 7.09375 -8.265625 7.09375 -8.359375 C 7.101562 -8.460938 7.113281 -8.5625 7.125 -8.65625 C 7.132812 -8.90625 7.117188 -9.160156 7.078125 -9.421875 C 7.046875 -9.679688 6.972656 -9.925781 6.859375 -10.15625 C 6.742188 -10.382812 6.59375 -10.570312 6.40625 -10.71875 C 6.226562 -10.863281 5.992188 -10.941406 5.703125 -10.953125 C 5.191406 -10.984375 4.769531 -10.851562 4.4375 -10.5625 C 4.113281 -10.269531 3.941406 -9.875 3.921875 -9.375 C 3.898438 -9.101562 3.988281 -8.765625 4.1875 -8.359375 C 4.394531 -7.960938 4.65625 -7.539062 4.96875 -7.09375 C 5.28125 -6.65625 5.632812 -6.210938 6.03125 -5.765625 C 6.4375 -5.316406 6.832031 -4.882812 7.21875 -4.46875 C 7.601562 -4.050781 7.96875 -3.675781 8.3125 -3.34375 C 8.664062 -3.007812 8.953125 -2.742188 9.171875 -2.546875 C 9.335938 -2.796875 9.476562 -3.0625 9.59375 -3.34375 C 9.707031 -3.632812 9.773438 -3.9375 9.796875 -4.25 C 9.816406 -4.601562 9.710938 -4.898438 9.484375 -5.140625 C 9.265625 -5.390625 9.007812 -5.59375 8.71875 -5.75 L 11.625 -5.34375 C 11.414062 -5.28125 11.210938 -5.117188 11.015625 -4.859375 C 10.816406 -4.609375 10.625 -4.316406 10.4375 -3.984375 C 10.25 -3.660156 10.070312 -3.335938 9.90625 -3.015625 C 9.75 -2.691406 9.59375 -2.441406 9.4375 -2.265625 C 9.738281 -2.015625 10.039062 -1.734375 10.34375 -1.421875 C 10.65625 -1.117188 10.96875 -0.820312 11.28125 -0.53125 C 11.601562 -0.25 11.941406 0.00390625 12.296875 0.234375 C 12.648438 0.460938 13.019531 0.640625 13.40625 0.765625 L 11.578125 0.671875 C 11.359375 0.648438 11.15625 0.609375 10.96875 0.546875 C 10.78125 0.492188 10.609375 0.394531 10.453125 0.25 Z M 2.21875 -3.921875 C 2.195312 -3.460938 2.253906 -3.003906 2.390625 -2.546875 C 2.535156 -2.097656 2.738281 -1.691406 3 -1.328125 C 3.269531 -0.960938 3.601562 -0.660156 4 -0.421875 C 4.40625 -0.179688 4.851562 -0.046875 5.34375 -0.015625 C 5.914062 0.015625 6.46875 -0.117188 7 -0.421875 C 7.539062 -0.734375 8.003906 -1.101562 8.390625 -1.53125 C 7.535156 -2.351562 6.710938 -3.191406 5.921875 -4.046875 C 5.140625 -4.898438 4.40625 -5.804688 3.71875 -6.765625 C 3.28125 -6.429688 2.925781 -6.007812 2.65625 -5.5 C 2.394531 -5 2.25 -4.472656 2.21875 -3.921875 Z M 2.21875 -3.921875 "/></g></g></g><g fill="#3d1700" fill-opacity="1"><g transform="translate(75.965489, 31.808519)"><g><path d="M 2.265625 -1.75 C 2.273438 -1.300781 2.40625 -0.9375 2.65625 -0.65625 C 2.90625 -0.375 3.234375 -0.175781 3.640625 -0.0625 L 0.828125 -0.015625 C 1.234375 -0.148438 1.546875 -0.359375 1.765625 -0.640625 C 1.992188 -0.929688 2.101562 -1.300781 2.09375 -1.75 L 1.96875 -9.859375 C 1.957031 -10.222656 1.816406 -10.535156 1.546875 -10.796875 C 1.285156 -11.054688 0.984375 -11.25 0.640625 -11.375 L 3.203125 -11.421875 L 8.03125 -2.078125 L 11.90625 -11.5625 L 13.953125 -11.59375 C 13.617188 -11.46875 13.394531 -11.273438 13.28125 -11.015625 C 13.175781 -10.753906 13.128906 -10.46875 13.140625 -10.15625 L 13.265625 -1.671875 C 13.273438 -1.367188 13.335938 -1.078125 13.453125 -0.796875 C 13.578125 -0.515625 13.804688 -0.328125 14.140625 -0.234375 L 11.078125 -0.1875 C 11.421875 -0.289062 11.644531 -0.484375 11.75 -0.765625 C 11.863281 -1.054688 11.914062 -1.351562 11.90625 -1.65625 L 11.765625 -10.65625 L 7.4375 -0.140625 L 2.125 -10.4375 Z M 2.265625 -1.75 "/></g></g></g><g fill="#3d1700" fill-opacity="1"><g transform="translate(91.152789, 31.502524)"><g><path d="M 2.296875 -1.265625 C 2.328125 -0.972656 2.429688 -0.75 2.609375 -0.59375 C 2.796875 -0.4375 3.023438 -0.332031 3.296875 -0.28125 L 0.828125 -0.078125 C 1.097656 -0.191406 1.347656 -0.378906 1.578125 -0.640625 C 1.804688 -0.910156 1.957031 -1.203125 2.03125 -1.515625 L 5.09375 -11.96875 L 9.921875 -2.1875 C 10.054688 -1.914062 10.226562 -1.660156 10.4375 -1.421875 C 10.65625 -1.179688 10.914062 -1.03125 11.21875 -0.96875 L 7.890625 -0.671875 C 8.078125 -0.753906 8.226562 -0.90625 8.34375 -1.125 C 8.46875 -1.34375 8.523438 -1.546875 8.515625 -1.734375 C 8.492188 -1.859375 8.414062 -2.066406 8.28125 -2.359375 C 8.144531 -2.660156 7.992188 -2.976562 7.828125 -3.3125 C 7.660156 -3.65625 7.492188 -3.984375 7.328125 -4.296875 C 7.171875 -4.609375 7.054688 -4.84375 6.984375 -5 L 3.171875 -4.671875 C 3.117188 -4.503906 3.046875 -4.265625 2.953125 -3.953125 C 2.859375 -3.648438 2.757812 -3.328125 2.65625 -2.984375 C 2.5625 -2.640625 2.472656 -2.3125 2.390625 -2 C 2.316406 -1.6875 2.285156 -1.441406 2.296875 -1.265625 Z M 3.203125 -4.859375 L 6.875 -5.171875 L 4.65625 -9.78125 Z M 3.203125 -4.859375 "/></g></g></g><g fill="#3d1700" fill-opacity="1"><g transform="translate(103.404955, 30.421317)"><g><path d="M 2.828125 -1.859375 C 2.867188 -1.546875 2.96875 -1.265625 3.125 -1.015625 C 3.289062 -0.765625 3.53125 -0.613281 3.84375 -0.5625 L 0.8125 -0.125 C 1.132812 -0.269531 1.328125 -0.488281 1.390625 -0.78125 C 1.453125 -1.082031 1.457031 -1.390625 1.40625 -1.703125 L 0.203125 -10.0625 C 0.148438 -10.375 0.0546875 -10.65625 -0.078125 -10.90625 C -0.222656 -11.164062 -0.46875 -11.316406 -0.8125 -11.359375 L 3.09375 -11.921875 C 3.644531 -11.992188 4.191406 -12.007812 4.734375 -11.96875 C 5.273438 -11.925781 5.769531 -11.800781 6.21875 -11.59375 C 6.675781 -11.382812 7.0625 -11.082031 7.375 -10.6875 C 7.695312 -10.289062 7.898438 -9.78125 7.984375 -9.15625 C 8.117188 -8.25 7.957031 -7.472656 7.5 -6.828125 C 7.039062 -6.179688 6.40625 -5.695312 5.59375 -5.375 L 8.15625 -2.296875 C 8.363281 -2.085938 8.597656 -1.898438 8.859375 -1.734375 C 9.117188 -1.566406 9.382812 -1.453125 9.65625 -1.390625 L 7.515625 -1.09375 L 4.15625 -5.109375 L 2.390625 -4.859375 Z M 2.359375 -5.03125 L 3.921875 -5.265625 C 4.878906 -5.398438 5.59375 -5.800781 6.0625 -6.46875 C 6.539062 -7.144531 6.707031 -7.96875 6.5625 -8.9375 C 6.414062 -9.945312 6.03125 -10.703125 5.40625 -11.203125 C 4.789062 -11.703125 3.984375 -11.878906 2.984375 -11.734375 L 1.421875 -11.5 Z M 2.359375 -5.03125 "/></g></g></g><g fill="#3d1700" fill-opacity="1"><g transform="translate(114.085902, 28.884433)"><g><path d="M 10.28125 -3.765625 C 10.0625 -3.484375 9.804688 -3.207031 9.515625 -2.9375 C 9.222656 -2.675781 8.910156 -2.4375 8.578125 -2.21875 C 8.242188 -2 7.898438 -1.800781 7.546875 -1.625 C 7.203125 -1.457031 6.851562 -1.34375 6.5 -1.28125 C 5.71875 -1.113281 4.945312 -1.101562 4.1875 -1.25 C 3.4375 -1.394531 2.753906 -1.664062 2.140625 -2.0625 C 1.523438 -2.457031 1 -2.960938 0.5625 -3.578125 C 0.125 -4.203125 -0.171875 -4.914062 -0.328125 -5.71875 C -0.492188 -6.519531 -0.5 -7.289062 -0.34375 -8.03125 C -0.1875 -8.769531 0.0976562 -9.441406 0.515625 -10.046875 C 0.929688 -10.648438 1.453125 -11.164062 2.078125 -11.59375 C 2.710938 -12.03125 3.421875 -12.332031 4.203125 -12.5 C 4.828125 -12.625 5.488281 -12.671875 6.1875 -12.640625 C 6.894531 -12.617188 7.53125 -12.460938 8.09375 -12.171875 L 8.46875 -10.34375 C 8.175781 -10.613281 7.847656 -10.878906 7.484375 -11.140625 C 7.117188 -11.398438 6.738281 -11.625 6.34375 -11.8125 C 5.957031 -12 5.550781 -12.132812 5.125 -12.21875 C 4.695312 -12.300781 4.28125 -12.300781 3.875 -12.21875 C 3.21875 -12.082031 2.6875 -11.8125 2.28125 -11.40625 C 1.875 -11 1.5625 -10.523438 1.34375 -9.984375 C 1.132812 -9.441406 1.019531 -8.859375 1 -8.234375 C 0.976562 -7.617188 1.023438 -7.035156 1.140625 -6.484375 C 1.265625 -5.859375 1.476562 -5.21875 1.78125 -4.5625 C 2.09375 -3.90625 2.476562 -3.328125 2.9375 -2.828125 C 3.40625 -2.335938 3.945312 -1.960938 4.5625 -1.703125 C 5.175781 -1.441406 5.851562 -1.382812 6.59375 -1.53125 C 7.019531 -1.625 7.398438 -1.785156 7.734375 -2.015625 C 8.066406 -2.242188 8.363281 -2.515625 8.625 -2.828125 C 8.882812 -3.148438 9.101562 -3.503906 9.28125 -3.890625 C 9.46875 -4.285156 9.613281 -4.675781 9.71875 -5.0625 Z M 10.28125 -3.765625 "/></g></g></g><g fill="#3d1700" fill-opacity="1"><g transform="translate(125.68984, 26.490184)"><g><path d="M 5.046875 -1.515625 C 5.742188 -1.703125 6.382812 -2.046875 6.96875 -2.546875 C 7.5625 -3.046875 7.941406 -3.660156 8.109375 -4.390625 L 8.15625 -2.140625 L 0.78125 -0.203125 C 1.082031 -0.398438 1.25 -0.648438 1.28125 -0.953125 C 1.320312 -1.253906 1.300781 -1.554688 1.21875 -1.859375 L -0.921875 -10.03125 C -1.003906 -10.332031 -1.128906 -10.601562 -1.296875 -10.84375 C -1.472656 -11.082031 -1.738281 -11.195312 -2.09375 -11.1875 L 5.125 -13.078125 L 6.125 -11.078125 C 5.613281 -11.660156 5.03125 -12.03125 4.375 -12.1875 C 3.71875 -12.351562 3.019531 -12.34375 2.28125 -12.15625 L 0.140625 -11.59375 L 1.484375 -6.453125 L 2.875 -6.8125 C 3.269531 -6.914062 3.613281 -7.097656 3.90625 -7.359375 C 4.207031 -7.617188 4.367188 -7.976562 4.390625 -8.4375 L 5.03125 -5.984375 C 4.789062 -6.378906 4.476562 -6.609375 4.09375 -6.671875 C 3.707031 -6.742188 3.316406 -6.726562 2.921875 -6.625 L 1.53125 -6.265625 L 2.921875 -0.96875 Z M 5.046875 -1.515625 "/></g></g></g><g fill="#3d1700" fill-opacity="1"><g transform="translate(135.318971, 23.964626)"><g><path d="M 5.21875 -1.84375 C 5.957031 -2.070312 6.515625 -2.453125 6.890625 -2.984375 C 7.273438 -3.515625 7.5625 -4.144531 7.75 -4.875 L 7.953125 -2.515625 L 0.78125 -0.25 C 1.070312 -0.457031 1.222656 -0.710938 1.234375 -1.015625 C 1.242188 -1.316406 1.203125 -1.617188 1.109375 -1.921875 L -1.421875 -9.96875 C -1.515625 -10.269531 -1.648438 -10.53125 -1.828125 -10.75 C -2.015625 -10.96875 -2.285156 -11.078125 -2.640625 -11.078125 L 0.265625 -12 C -0.00390625 -11.789062 -0.148438 -11.546875 -0.171875 -11.265625 C -0.191406 -10.984375 -0.15625 -10.691406 -0.0625 -10.390625 L 2.859375 -1.09375 Z M 5.21875 -1.84375 "/></g></g></g><g fill="#3d1700" fill-opacity="1"><g transform="translate(144.743692, 21.033833)"><g><path d="M 9.453125 -9.671875 C 9.722656 -8.941406 9.84375 -8.195312 9.8125 -7.4375 C 9.78125 -6.675781 9.613281 -5.960938 9.3125 -5.296875 C 9.019531 -4.628906 8.601562 -4.03125 8.0625 -3.5 C 7.519531 -2.96875 6.878906 -2.566406 6.140625 -2.296875 C 5.398438 -2.015625 4.648438 -1.890625 3.890625 -1.921875 C 3.140625 -1.953125 2.429688 -2.117188 1.765625 -2.421875 C 1.097656 -2.722656 0.5 -3.144531 -0.03125 -3.6875 C -0.5625 -4.226562 -0.960938 -4.863281 -1.234375 -5.59375 C -1.515625 -6.332031 -1.640625 -7.078125 -1.609375 -7.828125 C -1.578125 -8.585938 -1.410156 -9.300781 -1.109375 -9.96875 C -0.804688 -10.644531 -0.390625 -11.25 0.140625 -11.78125 C 0.679688 -12.3125 1.320312 -12.71875 2.0625 -13 C 2.800781 -13.269531 3.550781 -13.390625 4.3125 -13.359375 C 5.070312 -13.328125 5.78125 -13.15625 6.4375 -12.84375 C 7.101562 -12.539062 7.703125 -12.117188 8.234375 -11.578125 C 8.765625 -11.046875 9.171875 -10.410156 9.453125 -9.671875 Z M 0.15625 -6.4375 C 0.375 -5.875 0.695312 -5.300781 1.125 -4.71875 C 1.550781 -4.144531 2.046875 -3.65625 2.609375 -3.25 C 3.171875 -2.851562 3.773438 -2.570312 4.421875 -2.40625 C 5.078125 -2.25 5.726562 -2.296875 6.375 -2.546875 C 6.976562 -2.773438 7.445312 -3.132812 7.78125 -3.625 C 8.125 -4.125 8.351562 -4.675781 8.46875 -5.28125 C 8.582031 -5.894531 8.609375 -6.519531 8.546875 -7.15625 C 8.484375 -7.789062 8.351562 -8.367188 8.15625 -8.890625 C 7.925781 -9.472656 7.597656 -10.050781 7.171875 -10.625 C 6.753906 -11.195312 6.257812 -11.679688 5.6875 -12.078125 C 5.125 -12.472656 4.519531 -12.742188 3.875 -12.890625 C 3.226562 -13.035156 2.566406 -12.984375 1.890625 -12.734375 C 1.285156 -12.492188 0.816406 -12.128906 0.484375 -11.640625 C 0.160156 -11.160156 -0.0546875 -10.617188 -0.171875 -10.015625 C -0.285156 -9.410156 -0.304688 -8.789062 -0.234375 -8.15625 C -0.171875 -7.53125 -0.0390625 -6.957031 0.15625 -6.4375 Z M 0.15625 -6.4375 "/></g></g></g></g></g></g></g></g></g></g></svg>