<svg xmlns="http://www.w3.org/2000/svg" xmlns:xlink="http://www.w3.org/1999/xlink" width="397" zoomAndPan="magnify" viewBox="0 0 297.75 419.249996" height="559" preserveAspectRatio="xMidYMid meet" version="1.0"><defs><g/><clipPath id="92a576b6b2"><path d="M 0.398438 0.300781 L 108 0.300781 L 108 350.074219 L 0.398438 350.074219 Z M 0.398438 0.300781 " clip-rule="nonzero"/></clipPath><clipPath id="dc1f5f27d8"><path d="M 0.398438 282 L 1 282 L 1 283 L 0.398438 283 Z M 0.398438 282 " clip-rule="nonzero"/></clipPath><clipPath id="a26198ef2d"><rect x="0" width="108" y="0" height="351"/></clipPath><clipPath id="b11bcb2fc5"><path d="M 34 85 L 221.765625 85 L 221.765625 309 L 34 309 Z M 34 85 " clip-rule="nonzero"/></clipPath><clipPath id="1566cba23d"><rect x="0" width="188" y="0" height="224"/></clipPath><clipPath id="8ba9b4785f"><rect x="0" width="222" y="0" height="351"/></clipPath></defs><g transform="matrix(1, 0, 0, 1, 34, 33)"><g clip-path="url(#8ba9b4785f)"><g clip-path="url(#92a576b6b2)"><g><g clip-path="url(#a26198ef2d)"><g fill="#3d1700" fill-opacity="1"><g transform="translate(0.437869, 156.720238)"><g><path d="M 104.53125 -7.578125 C 104.53125 -0.148438 103.34375 6.609375 100.96875 12.703125 C 98.59375 18.796875 95.210938 23.992188 90.828125 28.296875 C 86.441406 32.609375 81.203125 35.953125 75.109375 38.328125 C 69.015625 40.710938 62.253906 41.90625 54.828125 41.90625 C 48.140625 41.90625 41.75 40.863281 35.65625 38.78125 C 29.570312 36.695312 24.222656 33.6875 19.609375 29.75 C 15.003906 25.8125 11.328125 21.019531 8.578125 15.375 C 5.828125 9.726562 4.453125 3.335938 4.453125 -3.796875 C 4.453125 -10.628906 5.640625 -16.492188 8.015625 -21.390625 C 10.398438 -26.296875 13.632812 -30.347656 17.71875 -33.546875 C 21.800781 -36.742188 26.59375 -39.117188 32.09375 -40.671875 C 37.59375 -42.234375 43.460938 -43.015625 49.703125 -43.015625 L 49.703125 -42.125 C 44.359375 -41.832031 39.414062 -40.53125 34.875 -38.21875 C 30.34375 -35.914062 26.476562 -32.90625 23.28125 -29.1875 C 20.09375 -25.476562 17.609375 -21.242188 15.828125 -16.484375 C 14.046875 -11.734375 13.15625 -6.6875 13.15625 -1.34375 C 13.15625 4.75 14.15625 10.285156 16.15625 15.265625 C 18.164062 20.242188 20.953125 24.515625 24.515625 28.078125 C 28.085938 31.648438 32.398438 34.398438 37.453125 36.328125 C 42.503906 38.265625 48.070312 39.234375 54.15625 39.234375 C 66.195312 39.234375 75.597656 35.703125 82.359375 28.640625 C 89.117188 21.578125 92.5 12.03125 92.5 0 C 92.5 -6.382812 91.050781 -12.210938 88.15625 -17.484375 C 85.257812 -22.765625 81.617188 -27.742188 77.234375 -32.421875 C 72.847656 -37.109375 68.09375 -41.601562 62.96875 -45.90625 C 57.84375 -50.21875 53.085938 -54.53125 48.703125 -58.84375 C 44.316406 -63.15625 40.675781 -67.613281 37.78125 -72.21875 C 34.882812 -76.820312 33.4375 -81.800781 33.4375 -87.15625 C 33.4375 -91.019531 34.140625 -94.507812 35.546875 -97.625 C 36.960938 -100.75 38.894531 -103.347656 41.34375 -105.421875 C 43.800781 -107.503906 46.660156 -109.101562 49.921875 -110.21875 C 53.191406 -111.332031 56.6875 -111.890625 60.40625 -111.890625 C 61.882812 -111.890625 63.328125 -111.738281 64.734375 -111.4375 C 66.148438 -111.144531 67.53125 -110.847656 68.875 -110.546875 L 74.453125 -108.765625 C 77.421875 -107.878906 80.242188 -107.4375 82.921875 -107.4375 C 84.992188 -107.4375 86.625 -108.253906 87.8125 -109.890625 L 86.265625 -84.03125 C 85.660156 -87 84.613281 -90.039062 83.125 -93.15625 C 81.644531 -96.28125 79.753906 -99.101562 77.453125 -101.625 C 75.148438 -104.15625 72.550781 -106.273438 69.65625 -107.984375 C 66.757812 -109.691406 63.601562 -110.546875 60.1875 -110.546875 C 54.6875 -110.546875 49.96875 -109.0625 46.03125 -106.09375 C 42.09375 -103.125 40.125 -98.664062 40.125 -92.71875 C 40.125 -88.113281 41.71875 -83.691406 44.90625 -79.453125 C 48.101562 -75.222656 52.078125 -71.0625 56.828125 -66.96875 C 61.585938 -62.882812 66.753906 -58.722656 72.328125 -54.484375 C 77.898438 -50.253906 83.0625 -45.757812 87.8125 -41 C 92.570312 -36.25 96.546875 -31.125 99.734375 -25.625 C 102.929688 -20.132812 104.53125 -14.117188 104.53125 -7.578125 Z M 104.53125 -7.578125 "/></g></g></g><g clip-path="url(#dc1f5f27d8)"><g fill="#3d1700" fill-opacity="1"><g transform="translate(0.437869, 282.583053)"><g/></g></g></g></g></g></g><g clip-path="url(#b11bcb2fc5)"><g transform="matrix(1, 0, 0, 1, 34, 85)"><g clip-path="url(#1566cba23d)"><g fill="#3d1700" fill-opacity="1"><g transform="translate(46.645719, 156.402309)"><g><path d="M 140.203125 44.578125 C 138.566406 44.722656 137.003906 44.832031 135.515625 44.90625 C 134.023438 44.988281 132.46875 45.03125 130.84375 45.03125 C 119.539062 45.03125 109.726562 42.351562 101.40625 37 C 93.09375 31.644531 85.703125 24.695312 79.234375 16.15625 C 72.773438 7.613281 67.019531 -2.039062 61.96875 -12.8125 C 56.914062 -23.582031 52.082031 -34.425781 47.46875 -45.34375 C 42.863281 -56.269531 38.222656 -66.710938 33.546875 -76.671875 C 28.867188 -86.628906 23.703125 -95.097656 18.046875 -102.078125 L 18.046875 -16.5 C 18.046875 -12.1875 19.234375 -8.65625 21.609375 -5.90625 C 23.992188 -3.15625 27.117188 -1.1875 30.984375 0 L 4.015625 0 C 12.179688 -2.53125 16.265625 -8.03125 16.265625 -16.5 L 16.265625 -104.09375 C 11.066406 -110.332031 4.828125 -115.644531 -2.453125 -120.03125 C -9.734375 -124.414062 -17.535156 -126.609375 -25.859375 -126.609375 C -29.128906 -126.609375 -32.320312 -126.347656 -35.4375 -125.828125 C -38.5625 -125.304688 -41.609375 -124.671875 -44.578125 -123.921875 L -45.25 -125.484375 C -38.113281 -127.566406 -30.90625 -128.609375 -23.625 -128.609375 C -14.257812 -128.609375 -5.789062 -126.972656 1.78125 -123.703125 C 9.363281 -120.429688 16.238281 -116.046875 22.40625 -110.546875 C 28.570312 -105.054688 34.066406 -98.707031 38.890625 -91.5 C 43.722656 -84.289062 48.109375 -76.75 52.046875 -68.875 C 55.984375 -61 59.625 -53.046875 62.96875 -45.015625 C 66.3125 -36.992188 69.46875 -29.414062 72.4375 -22.28125 L 111.890625 -109.21875 L 131.953125 -109.21875 C 128.828125 -108.320312 126.707031 -106.570312 125.59375 -103.96875 C 124.476562 -101.375 123.921875 -98.59375 123.921875 -95.625 L 123.921875 -14.265625 C 123.921875 -11.296875 124.441406 -8.4375 125.484375 -5.6875 C 126.523438 -2.9375 128.679688 -1.039062 131.953125 0 L 102.3125 0 C 105.570312 -0.894531 107.722656 -2.753906 108.765625 -5.578125 C 109.804688 -8.398438 110.328125 -11.296875 110.328125 -14.265625 L 110.328125 -102.078125 L 73.328125 -20.28125 C 75.703125 -14.1875 78.523438 -7.460938 81.796875 -0.109375 C 85.066406 7.242188 88.929688 14.113281 93.390625 20.5 C 97.847656 26.894531 103.082031 32.242188 109.09375 36.546875 C 115.113281 40.859375 121.988281 43.015625 129.71875 43.015625 C 131.5 43.015625 133.242188 42.976562 134.953125 42.90625 C 136.671875 42.832031 138.34375 42.644531 139.96875 42.34375 Z M 140.203125 44.578125 "/></g></g></g></g></g></g></g></g></svg>